<svg width="836" height="680" viewBox="0 0 836 680" fill="none" xmlns="http://www.w3.org/2000/svg">
<path d="M429.152 603.064C653.642 603.064 835.626 468.064 835.626 301.532C835.626 135.001 653.642 0 429.152 0C204.662 0 22.6776 135.001 22.6776 301.532C22.6776 468.064 204.662 603.064 429.152 603.064Z" fill="#D8ECFE"/>
<path d="M835.623 301.538C835.623 468.068 653.645 603.063 429.157 603.063C309.58 603.063 202.057 564.757 127.676 503.792C199.793 552.199 295.43 581.671 400.322 581.671C624.81 581.671 806.788 446.676 806.788 280.145C806.788 202.293 767.021 131.321 701.711 77.8223C783.95 133 835.623 212.791 835.623 301.538V301.538Z" fill="#C4E2FF"/>
<path d="M429.152 511.736C585.648 511.736 712.514 417.625 712.514 301.532C712.514 185.44 585.648 91.3279 429.152 91.3279C272.656 91.3279 145.79 185.44 145.79 301.532C145.79 417.625 272.656 511.736 429.152 511.736Z" fill="#B3DAFE"/>
<path d="M712.514 301.537C712.514 417.627 585.649 511.738 429.157 511.738C343.551 511.738 266.832 483.59 214.882 439.086C264.586 471.03 329.417 490.346 400.32 490.346C556.812 490.346 683.677 396.235 683.677 280.145C683.677 227.548 657.638 179.455 614.576 142.583C674.567 181.121 712.514 238.033 712.514 301.537V301.537Z" fill="#8AC9FE"/>
<path d="M219.124 679.069L213.089 678.478C195.24 676.729 182.683 664.578 185.042 651.338L240.168 341.764L310.837 348.689L255.709 658.262C253.351 671.503 236.971 680.818 219.124 679.069V679.069Z" fill="#685E68"/>
<path d="M310.832 348.688L255.827 657.572C253.399 671.196 236.541 680.779 218.176 678.978L214.017 678.568C206.95 677.871 200.694 675.605 195.818 672.288C208.754 669.885 219.004 661.831 220.864 651.429L275.389 345.221L310.832 348.688Z" fill="#554E56"/>
<path d="M316.5 114.983L245.477 108.023C240.25 107.511 235.454 110.238 234.764 114.115L213.441 233.859C210.269 251.676 220.732 268.77 239.329 278.194C246.251 281.703 249.758 287.903 248.66 294.069L240.168 341.764L310.837 348.689L319.329 300.994C320.427 294.828 325.983 289.515 333.896 287.46C355.155 281.942 371.242 267.449 374.414 249.633L395.737 129.889C396.427 126.012 392.751 122.454 387.524 121.942L316.5 114.983Z" fill="#E2DEE2"/>
<path d="M395.739 129.888L374.411 249.636C371.245 267.45 355.144 281.948 333.889 287.464C325.976 289.512 320.418 294.823 319.333 300.992L310.832 348.69L275.333 345.209L284.369 293.171C285.455 287.001 291.013 281.691 298.926 279.643C320.181 274.114 336.282 259.63 339.447 241.816L360.775 122.068C360.942 121.113 360.849 120.171 360.518 119.297L387.533 121.945C392.758 122.449 396.42 126.012 395.739 129.888V129.888Z" fill="#CBC4CC"/>
<path d="M302.831 113.644L283.674 221.215C282.773 226.362 276.828 230.116 270.019 230.116C269.411 230.116 268.805 230.088 268.197 230.034C260.634 229.283 255.316 224.136 256.308 218.539L275.466 110.967V110.954L302.831 113.644Z" fill="#B5ADB6"/>
<path d="M357.522 119.009L338.365 226.579C337.444 231.726 331.52 235.48 324.71 235.48C324.102 235.48 323.496 235.452 322.888 235.385C315.326 234.647 310.007 229.502 311 223.89L330.157 116.32L357.522 119.009Z" fill="#B5ADB6"/>
<path d="M644.395 678.645L638.341 679.125C620.441 680.546 604.377 670.932 602.462 657.653L557.68 347.162L628.558 341.536L673.341 652.027C675.254 665.307 662.295 677.224 644.395 678.645Z" fill="#685E68"/>
<path d="M643.45 678.718L639.291 679.045C632.15 679.605 625.287 678.472 619.454 676.07C631.36 671.483 638.869 661.819 637.36 651.334L593.085 344.347L628.563 341.534L673.244 651.334C675.213 664.999 661.871 677.257 643.45 678.718V678.718Z" fill="#554E56"/>
<path d="M628.556 341.537L557.678 347.163L552.191 309.127C551.283 302.835 547.152 297.042 540.652 292.944L525.79 283.579C517.925 278.623 513.607 271.24 514.098 263.594L525.425 87.6812C526.208 75.5299 538.81 65.6153 555.115 64.3206C573.384 62.8706 589.778 72.6805 591.733 86.2326L628.556 341.537Z" fill="#E2DEE2"/>
<path d="M628.563 341.536L593.138 344.348L556.317 89.0993C555.047 80.3626 547.796 73.182 537.896 69.5777C542.699 66.7243 548.624 64.8274 555.121 64.3219C556.317 64.2264 557.513 64.1853 558.69 64.1853C575.49 64.1853 589.9 73.564 591.74 86.2313L628.563 341.536Z" fill="#CBC4CC"/>
<path d="M751.467 39.9994C744.453 56.6039 726.238 86.7803 683.77 98.5601C680.302 99.5218 680.302 103.223 683.77 104.185C726.24 115.964 744.455 146.141 751.467 162.745C752.652 165.554 758.033 165.554 759.221 162.745C766.234 146.141 784.449 115.964 826.918 104.185C830.385 103.223 830.385 99.5218 826.918 98.5601C784.447 86.7803 766.232 56.6039 759.221 39.9994C758.035 37.1911 752.654 37.1911 751.467 39.9994V39.9994Z" fill="#FBFBFB"/>
<path d="M826.918 104.186C784.447 115.962 766.236 146.137 759.228 162.744C758.037 165.556 752.652 165.556 751.461 162.744C748.336 155.341 742.998 145.275 734.287 135.312C742.132 122.917 741.047 110.715 764.61 104.185C768.076 103.22 768.076 99.5246 764.61 98.5602C741.047 92.0176 742.132 79.8173 734.287 67.422C742.998 57.4715 748.336 47.3937 751.461 40.0022C752.652 37.1899 758.037 37.1899 759.228 40.0022C766.236 56.5987 784.447 86.7724 826.918 98.5602C830.383 99.5259 830.383 103.222 826.918 104.186Z" fill="white"/>
<path d="M55.8547 524.555C50.2897 537.731 35.8336 561.68 2.12899 571.029C-0.623097 571.792 -0.623097 574.73 2.12899 575.493C35.8336 584.841 50.2879 608.789 55.8547 621.967C56.7953 624.196 61.0674 624.196 62.008 621.967C67.573 608.791 82.0291 584.842 115.734 575.493C118.486 574.73 118.486 571.792 115.734 571.029C82.0291 561.681 67.5748 537.733 62.008 524.555C61.0656 522.326 56.7953 522.326 55.8547 524.555V524.555Z" fill="#FDFDFD"/>
<path d="M115.732 575.494C82.0273 584.84 67.5748 608.787 62.0134 621.966C61.0674 624.198 56.7953 624.198 55.8493 621.966C53.369 616.091 49.1327 608.102 42.2194 600.196C48.4442 590.358 47.5823 580.676 66.2837 575.493C69.034 574.728 69.034 571.795 66.2837 571.029C47.5823 565.837 48.4442 556.155 42.2194 546.317C49.1327 538.42 53.369 530.422 55.8493 524.556C56.7953 522.325 61.0674 522.325 62.0134 524.556C67.5748 537.727 82.0273 561.674 115.732 571.028C118.482 571.796 118.482 574.729 115.732 575.494V575.494Z" fill="#FCF9F3"/>
</svg>
